<?xml version="1.0" encoding="iso-8859-1"?>
<!-- Generator: Adobe Illustrator 19.0.0, SVG Export Plug-In . SVG Version: 6.00 Build 0)  -->
<svg version="1.1" id="Layer_1" xmlns="http://www.w3.org/2000/svg" xmlns:xlink="http://www.w3.org/1999/xlink" x="0px" y="0px"
	 viewBox="0 0 508 508" style="enable-background:new 0 0 508 508;" xml:space="preserve">
<circle style="fill:#90DFAA;" cx="254" cy="254" r="254"/>
<path style="fill:#324A5E;" d="M360,415.2H148c-6.4,0-11.6-5.2-11.6-11.6V104.4c0-6.4,5.2-11.6,11.6-11.6h212.4
	c6.4,0,11.6,5.2,11.6,11.6V404C372,410,366.8,415.2,360,415.2z"/>
<path style="fill:#2B3B4E;" d="M175.6,92.8h-28c-6.4,0-11.6,5.2-11.6,11.6V404c0,6.4,5.2,11.6,11.6,11.6h28V92.8z"/>
<polygon style="fill:#84DBFF;" points="301.6,92.8 279.2,92.8 279.2,212 301.6,189.6 324.4,212 324.4,92.8 "/>
<g>
</g>
<g>
</g>
<g>
</g>
<g>
</g>
<g>
</g>
<g>
</g>
<g>
</g>
<g>
</g>
<g>
</g>
<g>
</g>
<g>
</g>
<g>
</g>
<g>
</g>
<g>
</g>
<g>
</g>
</svg>
