<svg id="Layer_1" data-name="Layer 1" xmlns="http://www.w3.org/2000/svg" xmlns:xlink="http://www.w3.org/1999/xlink" viewBox="0 0 358.04 312.84"><defs><style>.cls-1{fill:none;}.cls-2,.cls-3,.cls-4,.cls-5{opacity:0.22;}.cls-18,.cls-2,.cls-3,.cls-4,.cls-49,.cls-5,.cls-53,.cls-9{isolation:isolate;}.cls-2{fill:url(#linear-gradient);}.cls-3{fill:url(#linear-gradient-2);}.cls-4{fill:url(#linear-gradient-3);}.cls-5{fill:url(#linear-gradient-4);}.cls-6{fill:url(#linear-gradient-5);}.cls-7{fill:url(#linear-gradient-6);}.cls-8{fill:url(#linear-gradient-7);}.cls-49,.cls-53,.cls-9{opacity:0.31;}.cls-9{fill:url(#linear-gradient-8);}.cls-10{fill:url(#linear-gradient-9);}.cls-11{fill:url(#linear-gradient-10);}.cls-12{fill:#161f4e;}.cls-13{fill:#212c6e;}.cls-14{fill:url(#linear-gradient-11);}.cls-15{fill:url(#linear-gradient-12);}.cls-16{fill:#152157;opacity:0.26;}.cls-17{fill:url(#linear-gradient-13);}.cls-18,.cls-50{fill:#fff;}.cls-18{opacity:0.34;}.cls-19{fill:url(#linear-gradient-14);}.cls-20{fill:#fcedcf;}.cls-21{fill:#f5be50;}.cls-22{fill:url(#linear-gradient-15);}.cls-23{fill:url(#linear-gradient-16);}.cls-24{fill:url(#linear-gradient-17);}.cls-25{fill:url(#linear-gradient-18);}.cls-26{fill:url(#linear-gradient-19);}.cls-27{fill:url(#linear-gradient-20);}.cls-28{fill:url(#linear-gradient-21);}.cls-29{fill:url(#linear-gradient-22);}.cls-30{fill:url(#linear-gradient-23);}.cls-31{fill:url(#linear-gradient-24);}.cls-32{fill:url(#linear-gradient-25);}.cls-33{fill:url(#linear-gradient-26);}.cls-34{fill:url(#linear-gradient-27);}.cls-35{fill:url(#linear-gradient-28);}.cls-36{fill:url(#linear-gradient-29);}.cls-37{fill:url(#linear-gradient-30);}.cls-38{fill:url(#linear-gradient-31);}.cls-39{fill:url(#linear-gradient-32);}.cls-40{fill:url(#linear-gradient-33);}.cls-41{fill:url(#linear-gradient-34);}.cls-42{fill:url(#linear-gradient-35);}.cls-43{fill:url(#linear-gradient-36);}.cls-44{clip-path:url(#clip-path);}.cls-45{fill:url(#linear-gradient-37);}.cls-46{fill:#488bc4;}.cls-47{fill:url(#linear-gradient-38);}.cls-48{fill:url(#linear-gradient-39);}.cls-49{fill:url(#linear-gradient-40);}.cls-50{opacity:0.37;}.cls-51{fill:url(#linear-gradient-41);}.cls-52{fill:url(#linear-gradient-42);}.cls-53{fill:url(#linear-gradient-43);}.cls-54{fill:url(#linear-gradient-44);}.cls-55{fill:url(#linear-gradient-45);}.cls-56{fill:url(#linear-gradient-46);}</style><linearGradient id="linear-gradient" x1="53.14" y1="238.67" x2="295.2" y2="238.67" gradientUnits="userSpaceOnUse"><stop offset="0" stop-color="#86e0fa"/><stop offset="1" stop-color="#7ab9e7"/></linearGradient><linearGradient id="linear-gradient-2" x1="1.05" y1="340.69" x2="315" y2="340.69" gradientTransform="translate(0 -232)" xlink:href="#linear-gradient"/><linearGradient id="linear-gradient-3" x1="134.14" y1="308.6" x2="335.2" y2="308.6" gradientTransform="translate(0 -232)" xlink:href="#linear-gradient"/><linearGradient id="linear-gradient-4" x1="157.52" y1="449.38" x2="358.59" y2="449.38" gradientTransform="translate(0 -232)" xlink:href="#linear-gradient"/><linearGradient id="linear-gradient-5" x1="206.74" y1="87.86" x2="219.89" y2="87.86" gradientUnits="userSpaceOnUse"><stop offset="0.29" stop-color="#2a5c90"/><stop offset="0.5" stop-color="#63acd1"/><stop offset="0.64" stop-color="#86e0fa"/></linearGradient><linearGradient id="linear-gradient-6" x1="192.77" y1="71.01" x2="174.81" y2="113" xlink:href="#linear-gradient"/><linearGradient id="linear-gradient-7" x1="203.35" y1="81.06" x2="200.49" y2="86.88" gradientUnits="userSpaceOnUse"><stop offset="0" stop-color="#e7c7d7"/><stop offset="0.42" stop-color="#ecd6d3"/><stop offset="1" stop-color="#f2ebcd"/></linearGradient><linearGradient id="linear-gradient-8" x1="203.58" y1="80.83" x2="203.79" y2="96.81" gradientUnits="userSpaceOnUse"><stop offset="0" stop-color="#e7c7d7"/><stop offset="0.42" stop-color="#735858"/><stop offset="1" stop-color="#f2ebcd"/></linearGradient><linearGradient id="linear-gradient-9" x1="194.24" y1="90.84" x2="210.97" y2="90.84" xlink:href="#linear-gradient-5"/><linearGradient id="linear-gradient-10" x1="205.04" y1="79.65" x2="205.32" y2="83.4" xlink:href="#linear-gradient-7"/><linearGradient id="linear-gradient-11" x1="84.65" y1="83.34" x2="377.98" y2="199.39" xlink:href="#linear-gradient-5"/><linearGradient id="linear-gradient-12" x1="287.55" y1="66.77" x2="191.82" y2="219.94" xlink:href="#linear-gradient-5"/><linearGradient id="linear-gradient-13" x1="-164.63" y1="-87.34" x2="-195.84" y2="-111.15" gradientTransform="translate(331.12 366.85) rotate(25.76)" xlink:href="#linear-gradient-5"/><linearGradient id="linear-gradient-14" x1="-104.4" y1="-70.58" x2="-169.38" y2="-83.64" gradientTransform="translate(331.12 366.85) rotate(25.76)" xlink:href="#linear-gradient-5"/><linearGradient id="linear-gradient-15" x1="-169.26" y1="-161.16" x2="-76.58" y2="-124.49" gradientTransform="translate(331.12 366.85) rotate(25.76)" xlink:href="#linear-gradient-5"/><linearGradient id="linear-gradient-16" x1="312.02" y1="172.32" x2="173.95" y2="144.58" gradientTransform="translate(-13.9 26.76) rotate(-4.39)" xlink:href="#linear-gradient-5"/><linearGradient id="linear-gradient-17" x1="-106.59" y1="-224.5" x2="-85.97" y2="-216.46" gradientTransform="translate(331.12 366.85) rotate(25.76)" gradientUnits="userSpaceOnUse"><stop offset="0.29" stop-color="#2a5c90"/><stop offset="0.97" stop-color="#63acd1"/></linearGradient><linearGradient id="linear-gradient-18" x1="-106.92" y1="-222.31" x2="-85.3" y2="-213.88" gradientTransform="translate(322.16 361.8) rotate(29.1)" xlink:href="#linear-gradient-5"/><linearGradient id="linear-gradient-19" x1="-203.25" y1="-91.49" x2="-234.45" y2="-115.3" gradientTransform="translate(322.16 361.8) rotate(29.1)" xlink:href="#linear-gradient-5"/><linearGradient id="linear-gradient-20" x1="-207.88" y1="-165.31" x2="-115.2" y2="-128.64" gradientTransform="translate(322.16 361.8) rotate(29.1)" xlink:href="#linear-gradient-5"/><linearGradient id="linear-gradient-21" x1="-145.21" y1="-228.65" x2="-124.58" y2="-220.61" gradientTransform="translate(322.16 361.8) rotate(29.1)" xlink:href="#linear-gradient-17"/><linearGradient id="linear-gradient-22" x1="-146.69" y1="-234.25" x2="-125.07" y2="-225.82" gradientTransform="translate(322.16 361.8) rotate(29.1)" xlink:href="#linear-gradient-5"/><linearGradient id="linear-gradient-23" x1="-167.8" y1="-169.4" x2="-157.12" y2="-169.4" gradientTransform="translate(322.16 361.8) rotate(29.1)" gradientUnits="userSpaceOnUse"><stop offset="0" stop-color="#63acd1"/><stop offset="1" stop-color="#2a5c90"/></linearGradient><linearGradient id="linear-gradient-24" x1="-160.6" y1="-184.31" x2="-149.93" y2="-184.31" xlink:href="#linear-gradient-23"/><linearGradient id="linear-gradient-25" x1="300.36" y1="179.04" x2="53.86" y2="129.51" gradientTransform="translate(-13.9 26.76) rotate(-4.39)" xlink:href="#linear-gradient-5"/><linearGradient id="linear-gradient-26" x1="240.17" y1="191.24" x2="96.85" y2="162.44" gradientTransform="translate(-13.9 26.76) rotate(-4.39)" xlink:href="#linear-gradient-5"/><linearGradient id="linear-gradient-27" x1="-266.05" y1="-31.79" x2="-297.26" y2="-55.6" gradientTransform="translate(322.16 361.8) rotate(29.1)" xlink:href="#linear-gradient-5"/><linearGradient id="linear-gradient-28" x1="-207.1" y1="-15.46" x2="-265.67" y2="-27.23" gradientTransform="translate(322.16 361.8) rotate(29.1)" xlink:href="#linear-gradient-5"/><linearGradient id="linear-gradient-29" x1="-270.68" y1="-105.61" x2="-178" y2="-68.94" gradientTransform="translate(322.16 361.8) rotate(29.1)" xlink:href="#linear-gradient-5"/><linearGradient id="linear-gradient-30" x1="-208.01" y1="-168.95" x2="-187.39" y2="-160.9" gradientTransform="translate(322.16 361.8) rotate(29.1)" xlink:href="#linear-gradient-17"/><linearGradient id="linear-gradient-31" x1="-209.49" y1="-174.55" x2="-187.87" y2="-166.12" gradientTransform="translate(322.16 361.8) rotate(29.1)" xlink:href="#linear-gradient-5"/><linearGradient id="linear-gradient-32" x1="-245.76" y1="-78.35" x2="-235.08" y2="-78.35" xlink:href="#linear-gradient-23"/><linearGradient id="linear-gradient-33" x1="-234.08" y1="-102.44" x2="-223.4" y2="-102.44" xlink:href="#linear-gradient-23"/><linearGradient id="linear-gradient-34" x1="-223.4" y1="-124.61" x2="-212.73" y2="-124.61" xlink:href="#linear-gradient-23"/><linearGradient id="linear-gradient-35" x1="245.65" y1="158.6" x2="232.58" y2="118.81" gradientTransform="translate(-13.9 26.76) rotate(-4.39)" xlink:href="#linear-gradient-5"/><linearGradient id="linear-gradient-36" x1="259.32" y1="187.88" x2="224.88" y2="180.96" gradientTransform="translate(-13.9 26.76) rotate(-4.39)" xlink:href="#linear-gradient-5"/><clipPath id="clip-path"><path class="cls-1" d="M162.83,133.33s20.27-4.54,28.5-15.85-.78-48.21-.78-48.21L147,42.44s-25,18.69-24.56,19.82l16.87,44.22Z"/></clipPath><linearGradient id="linear-gradient-37" x1="520.7" y1="-87.37" x2="554.93" y2="-87.37" gradientTransform="translate(-161.55 540.95) rotate(-43.41)" xlink:href="#linear-gradient-7"/><linearGradient id="linear-gradient-38" x1="295.89" y1="523.31" x2="271.02" y2="529.94" gradientTransform="translate(-441.57 81.4) rotate(-60.55)" xlink:href="#linear-gradient-7"/><linearGradient id="linear-gradient-39" x1="537.71" y1="-123.78" x2="560.02" y2="-123.78" gradientTransform="translate(-161.55 540.95) rotate(-43.41)" xlink:href="#linear-gradient-7"/><linearGradient id="linear-gradient-40" x1="292.27" y1="526.34" x2="285.54" y2="516.32" gradientTransform="translate(-441.57 81.4) rotate(-60.55)" xlink:href="#linear-gradient-8"/><linearGradient id="linear-gradient-41" x1="281.4" y1="527.49" x2="288.27" y2="527.49" gradientTransform="translate(-441.57 81.4) rotate(-60.55)" xlink:href="#linear-gradient"/><linearGradient id="linear-gradient-42" x1="224.49" y1="122.27" x2="95.44" y2="96.34" xlink:href="#linear-gradient"/><linearGradient id="linear-gradient-43" x1="205.41" y1="78.31" x2="202.09" y2="86.07" xlink:href="#linear-gradient-8"/><linearGradient id="linear-gradient-44" x1="191.04" y1="113.64" x2="252.84" y2="66.84" gradientUnits="userSpaceOnUse"><stop offset="0.18" stop-color="#63acd1"/><stop offset="0.47" stop-color="#fff"/><stop offset="0.89" stop-color="#86e0fa"/></linearGradient><linearGradient id="linear-gradient-45" x1="209.09" y1="85.8" x2="208.71" y2="95.04" xlink:href="#linear-gradient-5"/><linearGradient id="linear-gradient-46" x1="212.95" y1="83.54" x2="200.61" y2="93.34" xlink:href="#linear-gradient-5"/></defs><title>3</title><path class="cls-2" d="M288.37,188.52,93.14,298.91,73.75,309.32a14,14,0,0,1-13.4-24.56L258,173.25c5.6-3.16,5.52-3.48,11.51-5.67C285.55,161.7,306.09,178.25,288.37,188.52Z"/><path class="cls-3" d="M315,63.59a67.38,67.38,0,0,1-34.26,58.68L132.19,206.11l-18.1,9.72a13.06,13.06,0,0,1-12.51-22.93l61-33.87c13.69-10.43,0-26.07-14.58-19.8l-61.63,34a14.52,14.52,0,0,1-14.46-25.17l5.63-4.32,1.12-.86a8.47,8.47,0,0,0,0-14.55l-2.05-1.22a22.41,22.41,0,0,0-22.06-.51L16.7,146.78a11,11,0,0,1-11.38-.86A10.63,10.63,0,0,1,6.53,128.1l72.7-40.52,15.16-8.41,126-70.91C262.69-15.57,315,15,315,63.59Z"/><path class="cls-4" d="M335.2,28.16h0a13.39,13.39,0,0,1-6.89,11.7L171.51,127l-18.14,9.69a13.06,13.06,0,0,1-12.5-22.93L315.69,16.66A13.14,13.14,0,0,1,335.2,28.16Z"/><path class="cls-5" d="M358.59,168.94h0a13.41,13.41,0,0,1-6.9,11.7l-156.8,87.11-18.13,9.69a13.06,13.06,0,0,1-12.51-22.93l174.82-97.07A13.14,13.14,0,0,1,358.59,168.94Z"/><path class="cls-6" d="M209.54,81.73s10.29,4.37,10.35,11.44l-2.11.9s-.75-6.6-11-10.77C206.76,83.3,206.34,81.24,209.54,81.73Z"/><path class="cls-7" d="M197,82.49l-1.8,8.12c-1.17,1.71-4.58,3-6.64,2.81L167.64,82l6.18,10.18s5.45,14.16,19.65,10.46c12.3-3.2,11.47-17.08,11.47-17.08Z"/><path class="cls-8" d="M200.77,78.7s-3.12,2.29-2.25,5.48,3.27,2.4,3.27,2.4l5-3.28Z"/><path class="cls-9" d="M200.76,83.63a2.61,2.61,0,0,0,.38,1.17A2.32,2.32,0,0,0,202.47,86a2.1,2.1,0,0,0,1.43-.19,6,6,0,0,0,1.21-.84,3,3,0,0,0,1.35-1.91.84.84,0,0,0-.34-.79,1.16,1.16,0,0,0-.46-.12C204.3,82,200.67,81.39,200.76,83.63Z"/><path class="cls-10" d="M209.54,81.73l-2.78,1.57a8.85,8.85,0,0,0-8.24.88c-2.69,1.86-1,12.71,12.45,15l-2.63,2.25a25.35,25.35,0,0,1-9.1-4.88c-4.42-4-7.1-10.34-2.9-14.16C201.39,77.85,209.54,81.73,209.54,81.73Z"/><path class="cls-11" d="M208.91,84.66a1.17,1.17,0,0,1-1.12-.91l-1,.3a.74.74,0,0,1-1.05-.71,3,3,0,0,1-1.43.86c-.76.12-.73-1-.73-1l0,0a1.67,1.67,0,0,1-1.31.72c-1,.09-1-.72-1-.72,1.37-2.49-1.07-2.61-1.07-2.61a1.7,1.7,0,0,1,.64-2c2.07-1.39,7.58.17,8.86,1.57S209.89,84.75,208.91,84.66Z"/><path class="cls-12" d="M120.69,118.22s10.67-7.18,16.49-8.31,8.27-7.34,10.58-8.43c9.41-4.42,8.19-.18,8.75,0s26.66,24.42,26.66,24.42l-30.88,11.6-20.93-11.45Z"/><path class="cls-13" d="M166.68,131.94l-21.49-3.53s-8.58-15.13-18.71-13.72-6.06,11.92-2.28,15.68,19.19,15.39,19.19,15.39Z"/><path class="cls-14" d="M235.51,144.17s69.54-36.93,72.61-46.58-53.74-19.93-78.84-9.72-34.23,34-62.6,44.07S136.51,146.08,134,155.31s8.21,29,8.21,29S227.41,161,235.51,144.17Z"/><path class="cls-15" d="M284.47,146.17c-3.6,3.29-6.1,5.28-6.1,5.28L172.43,167.32,209.82,134s85.09-56,98.3-36.4a14,14,0,0,1,1.47,2.81C315.47,115.28,295.13,136.43,284.47,146.17Z"/><path class="cls-16" d="M284.47,146.17c-9.68,2.41-20.11,2.53-30.19,2.55l-35.61.1c9.85-2.47,20.09-5.13,27.81-11.73,3.48-3,6.29-6.64,9.32-10.07a102.79,102.79,0,0,1,18.34-16.39c9.05-6.32,24-13,35.45-10.23C315.47,115.28,295.13,136.43,284.47,146.17Z"/><path class="cls-17" d="M248.93,187.94c6.73,4.15-25.63,26.37-31.2,26.6s-39.61,5-41,0S233.28,178.31,248.93,187.94Z"/><path class="cls-18" d="M198,193.44s9.83,4.31,23.2.86c9.38-2.42,15.83-10.59,15.87-10.62C226.52,183.4,211.11,188,198,193.44Z"/><path class="cls-19" d="M267.91,210.64c-2.62-7.09-27.71,22.24-28.92,27.65s-11.63,38.08-7.31,40C240.5,282.3,274.4,228.21,267.91,210.64Z"/><path class="cls-20" d="M228.23,223.93a3,3,0,0,0-2.86-3c-3.93-.18-12,.06-19.3,5.54s-11.82,15.29-12.31,20.28c-.2,2,.86,4.24,2.78,4.47,5.08.61,14.43-1,21.34-6.51A25.84,25.84,0,0,0,228.23,223.93Z"/><path class="cls-21" d="M223,228.81a1.57,1.57,0,0,0-1.51-1.58,15.62,15.62,0,0,0-10.14,2.92c-3.82,2.86-6.21,8-6.47,10.65a2,2,0,0,0,1.46,2.35,16.76,16.76,0,0,0,11.22-3.42A13.56,13.56,0,0,0,223,228.81Z"/><path class="cls-22" d="M341.55,140.32s-22.77,35.21-48.88,58.84a447,447,0,0,1-47.84,38c-4.4,4-13.21,1.45-19.69-5.71s-8.17-16.22-3.77-20.23c0,0,41.22-58.78,105.33-87.31Z"/><polygon class="cls-23" points="285.46 171.04 287.53 136.38 235.48 163.25 251.63 203.02 285.46 171.04"/><path class="cls-24" d="M341.55,140.32c-2.63,2.39-8.08.66-12.18-3.88s-5.3-10.15-2.67-12.54a20,20,0,0,1,2.89-2l0,0c5.19-2.77,15.13-7,19.58-6.42a3.76,3.76,0,0,1,.48.13,3.39,3.39,0,0,1,1.51.93C355.3,121.08,344.18,137.92,341.55,140.32Z"/><path class="cls-25" d="M352.1,119.29c-4.42-.85-14.59,2.8-19.93,5.27C337.42,121.86,347.37,118,352.1,119.29Z"/><path class="cls-18" d="M352.58,119.41l0,0a3.53,3.53,0,0,0-.46-.15A3.37,3.37,0,0,1,352.58,119.41Z"/><path class="cls-26" d="M218.82,156c6.48,4.54-27.12,24.83-32.69,24.74s-39.84,2.64-40.92-2.39S203.75,145.47,218.82,156Z"/><path class="cls-18" d="M169,163.66s9.83,4.31,23.2.87c9.38-2.42,15.83-10.59,15.87-10.63C197.58,153.63,182.17,158.27,169,163.66Z"/><path class="cls-20" d="M199.29,194.16a3,3,0,0,0-2.86-3c-3.93-.18-12,.06-19.3,5.54S165.31,212,164.82,217c-.2,2,.86,4.24,2.78,4.47,5.08.61,14.43-1.05,21.34-6.51A25.85,25.85,0,0,0,199.29,194.16Z"/><path class="cls-21" d="M194.05,199a1.57,1.57,0,0,0-1.51-1.57,15.66,15.66,0,0,0-10.14,2.91c-3.82,2.87-6.22,8-6.47,10.66a2,2,0,0,0,1.46,2.35A16.86,16.86,0,0,0,188.61,210,13.59,13.59,0,0,0,194.05,199Z"/><path class="cls-27" d="M314.06,113.86s-24.78,33.83-52.23,55.89a446.85,446.85,0,0,1-50,35.14c-4.62,3.74-13.27.67-19.33-6.85s-7.2-16.67-2.58-20.41c0,0,44.58-56.28,110.24-81Z"/><path class="cls-28" d="M314.06,113.86c-2.76,2.23-8.11.18-11.94-4.58s-4.69-10.45-1.93-12.68a20.63,20.63,0,0,1,3-1.79l0,0c5.34-2.47,15.51-6.12,19.92-5.27a3.23,3.23,0,0,1,.47.15,3.33,3.33,0,0,1,1.45,1C328.9,95.45,316.82,111.62,314.06,113.86Z"/><path class="cls-29" d="M323.15,89.52c-4.41-.85-14.58,2.8-19.92,5.27C308.48,92.09,318.43,88.2,323.15,89.52Z"/><path class="cls-18" d="M323.64,89.63l0,0a3.23,3.23,0,0,0-.47-.15C323.33,89.55,323.49,89.59,323.64,89.63Z"/><circle class="cls-30" cx="265.5" cy="136.38" r="5.34"/><circle class="cls-31" cx="279.04" cy="126.85" r="5.34"/><polygon class="cls-32" points="216.71 149.19 254.27 138.44 258.93 141.73 206.06 191.13 160.42 203.64 216.71 149.19"/><polygon class="cls-33" points="175.6 193.23 215.97 181.75 206.06 191.13 160.42 203.64 175.6 193.23"/><path class="cls-34" d="M134.91,177.63c6.48,4.53-27.12,24.82-32.7,24.73S62.38,205,61.3,200,119.84,167.09,134.91,177.63Z"/><path class="cls-18" d="M85.13,185.29s9.83,4.31,23.19.86c9.39-2.42,15.84-10.59,15.88-10.62C113.67,175.25,98.26,179.89,85.13,185.29Z"/><path class="cls-35" d="M154.3,202.67c-2.21-7.23-29,20.59-30.48,25.92s-13.83,37.34-9.63,39.53S159.42,219.46,154.3,202.67Z"/><path class="cls-20" d="M115.38,215.78a3,3,0,0,0-2.86-3c-3.93-.18-12,.06-19.3,5.54S81.4,233.62,80.91,238.61c-.2,2,.86,4.24,2.78,4.47,5.08.61,14.43-1,21.34-6.51A25.84,25.84,0,0,0,115.38,215.78Z"/><path class="cls-21" d="M110.14,220.66a1.57,1.57,0,0,0-1.51-1.58A15.62,15.62,0,0,0,98.49,222c-3.82,2.86-6.22,8-6.47,10.65A2,2,0,0,0,93.48,235a16.76,16.76,0,0,0,11.22-3.42A13.56,13.56,0,0,0,110.14,220.66Z"/><path class="cls-36" d="M230.15,135.48s-24.78,33.83-52.23,55.89a446.85,446.85,0,0,1-50,35.14c-4.62,3.74-13.27.67-19.33-6.85S101.42,203,106,199.25c0,0,44.58-56.28,110.24-81Z"/><path class="cls-37" d="M230.15,135.48c-2.76,2.23-8.11.19-11.94-4.58s-4.7-10.44-1.93-12.68a20.07,20.07,0,0,1,3-1.79l0,0c5.34-2.47,15.51-6.12,19.92-5.27a3.23,3.23,0,0,1,.47.15,3.5,3.5,0,0,1,1.45,1C245,117.08,232.91,133.24,230.15,135.48Z"/><path class="cls-38" d="M239.24,111.14c-4.41-.85-14.58,2.8-19.92,5.27C224.57,113.71,234.52,109.82,239.24,111.14Z"/><path class="cls-18" d="M239.73,111.26l0,0a3.23,3.23,0,0,0-.47-.15A3.19,3.19,0,0,1,239.73,111.26Z"/><circle class="cls-39" cx="153.1" cy="178.02" r="5.34"/><circle class="cls-40" cx="175.02" cy="162.66" r="5.34"/><circle class="cls-41" cx="195.13" cy="148.48" r="5.34"/><polygon class="cls-42" points="258.93 141.73 254.27 138.44 220.04 148.35 213.25 156.4 258.93 141.73"/><polygon class="cls-43" points="246.26 181.75 251.63 203.02 246.63 203.64 241.06 185.55 246.26 181.75"/><g class="cls-44"><path class="cls-45" d="M176.75,100.29c.71,1.33,1.55,6.7,2.55,8.42s7.8,12.46,7.8,12.46-2.4,2.92-3.93,4.73c-6.26,7.42-13.4,7.58-13.4,7.58s-.07-7.18-3-10.7-7.93-3.06-9.75-8.28c-2.06-5.89-6.19-5.51-4.14-10.49.62-1.52-.51-7.39.36-9.31.48-1.06,1-2.08,1.54-3s1-1.63,1.45-2.38c1.89-2.78,4.08-4.92,6.47-5.89a7.47,7.47,0,0,1,6.69.55C176.07,87.64,176,99,176.75,100.29Z"/><path class="cls-46" d="M169,82.58c6.64,3.71,11.54,11.12,13.57,16.34l11.21,28.71-.34.23c-.39.26-1.1.74-2.21,1.46-1.82,1.19-4.7,3-8.9,5.63-1.9,1.17-3.68,2.19-5.3,3.07a78,78,0,0,1-9,4.27s-13.51-22.82-15.59-27.93c-3.5-8.6-.1-19.09,1.93-24.06,5-.61,1.12,4.17,4.08,2.6s7.08-2.91,5.79-5.54a19,19,0,0,1-1-2.41c-.3-.91-.5-1.7-.69-2.21-.13-.36-.24-.59-.38-.65a7.59,7.59,0,0,1,6.78.49Z"/><path class="cls-47" d="M162.45,82.81l0,.06c0,.1.13.27.26.51.71,1.4,2.51,5,3,6.23.63,1.62-3.56,3.85-5.39,4.81a3.81,3.81,0,0,1-1.84.5,3.23,3.23,0,0,1-2.87-1.73c-.18-.32-.48-.87-.84-1.54-1.58-3-4.36-8.35-4.36-8.35s.5-.16,1.27-.33a26.23,26.23,0,0,1,3.27-.53c.74-.08,1.57-.14,2.48-.18C161.91,82.09,162.45,82.81,162.45,82.81Z"/><path class="cls-48" d="M160.37,68.37a12.75,12.75,0,0,1,2.2,2.56c.68,1.3,4.43,8.14,3.52,9.76-.35.63-1.82,1.45-3.61,2.18a31.83,31.83,0,0,1-5.12,1.63h0a7.62,7.62,0,0,1-2.58.24c-.33-.06-.65-.13-1-.22a18.74,18.74,0,0,1-3.31-1.23h0a3.45,3.45,0,0,1-.81.37,3.57,3.57,0,0,1-2.59-.12,18.09,18.09,0,0,1-8.79-11.83c-1.41-6.94,8.1-12.31,12.79-11.69s6.43,3.33,6.43,3.33C159,64.83,159.78,67.65,160.37,68.37Z"/><path class="cls-49" d="M155,82.44c.84,1.25,1.71,2.21,2.33,2.07-.26.07-2.38.64-3.56,0l2.5,4.75,2.62,5-.36.68a3.23,3.23,0,0,1-2.87-1.73c-.18-.32-.48-.87-.84-1.54-1.58-3-4.36-8.35-4.36-8.35a3.45,3.45,0,0,1-.81.37l2.52-6.35A44.33,44.33,0,0,0,155,82.44Z"/><path class="cls-50" d="M169,82.58c6.64,3.71,11.54,11.12,13.57,16.34,1,2.54,9.66,22.32,11.21,28.71l-1.8,1.2c-3.27-8-11.9-27.05-12.77-30.65-1.29-5.23-13.41-15-13.41-15l-1.54,4.16-1-2.41-.83-2.08.14-.13,1.2-1.11A7.54,7.54,0,0,1,169,82.58Z"/><path class="cls-51" d="M153.73,89.59s-1.66,2.47-1.06,3.79,3.48,2,3.48,2,3.95,1.09,7.79-3.06a6.21,6.21,0,0,0-5.27-.25c-3,1.15-3.61.23-3.85-.39A22.23,22.23,0,0,0,153.73,89.59Z"/><path class="cls-12" d="M154.61,61.05a13.41,13.41,0,0,1-1.72,3.86,3.88,3.88,0,0,1-1.76,1.25,3.5,3.5,0,0,0-1.76,1.31c-.55,1,.25,2.38-.27,3.41-.38.77-1.35,1.06-1.89,1.73a2.66,2.66,0,0,0-.06,2.85,9,9,0,0,0,2,2.25c.3.27.6.68.39,1a.65.65,0,0,1-.85.09,4.64,4.64,0,0,1-.68-.65,2,2,0,0,0-3,2.69,5.87,5.87,0,0,0,2.45,1.42c.87.39,1.76,1.19,1.59,2.13a2.91,2.91,0,0,1-3.15,1.89,2.71,2.71,0,0,0-1.16-.12,2.3,2.3,0,0,0-.95.67A6,6,0,0,1,140,88.47a1.13,1.13,0,0,1-.89-.23,2.09,2.09,0,0,1-.3-.64c-.33-.8-1.2-1.17-1.91-1.67a5.17,5.17,0,0,1-2.14-4.26,5.25,5.25,0,0,0-.07-1.86c-.35-1-1.57-1.53-2-2.53-.31-.8,0-1.74-.23-2.56a6.59,6.59,0,0,0-1-1.64,5.21,5.21,0,0,1,0-5.41,4.2,4.2,0,0,0,.88-1.78,4,4,0,0,0-.18-1.17,5.18,5.18,0,0,1-.11-.87,6.09,6.09,0,0,1,4-6c.93-.31,1.92-.37,2.85-.64,1.51-.41,2.83-1.31,4.29-1.86a4.6,4.6,0,0,1,4.46.27,18.23,18.23,0,0,0,1.37,1.27C151,58.17,155.46,57.36,154.61,61.05Z"/><path class="cls-50" d="M154.61,61.05a13.41,13.41,0,0,1-1.72,3.86,3.88,3.88,0,0,1-1.76,1.25c.09-.64.63-1.36.73-2a2.38,2.38,0,0,0-.78-2.29c-1-.76-2.51-.22-3.75-.53a2.8,2.8,0,0,1-1.75-1.42,2.54,2.54,0,0,0-.49-.81,1.36,1.36,0,0,0-1.54,0,8.39,8.39,0,0,1-1.38.87c-1.4.53-3-.68-4.38,0-1.12.54-1.55,2.2-2.79,2.33-.29,0-.65,0-.86.2A.83.83,0,0,0,134,63c-.1.53-.2,1.08-.29,1.61a1.52,1.52,0,0,1-1.54-.67s0,0,0-.06a6.09,6.09,0,0,1,4-6c.93-.31,1.92-.37,2.85-.64,1.51-.41,2.83-1.31,4.29-1.86a4.6,4.6,0,0,1,4.46.27,18.23,18.23,0,0,0,1.37,1.27C151,58.17,155.46,57.36,154.61,61.05Z"/></g><path class="cls-52" d="M162.86,107.17l16.23,6.47,24.73-8S193.24,118,181.94,123.22c-1.82.84-14.65,1-19.93-1.31-3-1.33-7.88-5.29-7.64-8.62l.17-2.17A5.4,5.4,0,0,1,162.86,107.17Z"/><path class="cls-53" d="M204.26,84.2c-.76.12-.73-1-.73-1a4.66,4.66,0,0,0,.31-3l-.23-.84s.5-.16.84.79A6.4,6.4,0,0,1,204.26,84.2Z"/><path class="cls-54" d="M241.53,84.72s-19.45-3.08-21.64-2S201.2,96.23,203.82,105.6C203.82,105.6,222.11,86.67,241.53,84.72Z"/><path class="cls-55" d="M215.29,86l-4.73,4.44s-3.49-3.14-7-2.6c-1,.15-1-1.11.19-1.94a2.33,2.33,0,0,1,1.21-.43s7.72-.45,10.24.49Z"/><path class="cls-56" d="M215.18,86l-3.83,3.74s-5.19-3.36-7.07-2.59c-1.1.45-2.16-.09-.55-1.21a2.33,2.33,0,0,1,1.21-.43S212.66,85.06,215.18,86Z"/></svg>